<mxfile host="app.diagrams.net" agent="Mozilla/5.0 (Windows NT 10.0; Win64; x64; rv:141.0) Gecko/20100101 Firefox/141.0" version="28.0.7">
  <diagram name="Page-1" id="dyLtgWaQQ81f-_XzrqW9">
    <mxGraphModel dx="2195" dy="631" grid="1" gridSize="10" guides="1" tooltips="1" connect="1" arrows="1" fold="1" page="1" pageScale="1" pageWidth="850" pageHeight="1100" math="0" shadow="0">
      <root>
        <mxCell id="0" />
        <mxCell id="1" parent="0" />
        <mxCell id="xeeP3HZNscB9_ukjhl5j-23" value="" style="edgeStyle=orthogonalEdgeStyle;rounded=0;orthogonalLoop=1;jettySize=auto;html=1;" edge="1" parent="1" source="xeeP3HZNscB9_ukjhl5j-1" target="xeeP3HZNscB9_ukjhl5j-22">
          <mxGeometry relative="1" as="geometry" />
        </mxCell>
        <mxCell id="xeeP3HZNscB9_ukjhl5j-79" style="edgeStyle=orthogonalEdgeStyle;rounded=0;orthogonalLoop=1;jettySize=auto;html=1;" edge="1" parent="1" source="xeeP3HZNscB9_ukjhl5j-1" target="xeeP3HZNscB9_ukjhl5j-77">
          <mxGeometry relative="1" as="geometry" />
        </mxCell>
        <mxCell id="xeeP3HZNscB9_ukjhl5j-1" value="Tissue repair" style="rounded=0;whiteSpace=wrap;html=1;" vertex="1" parent="1">
          <mxGeometry x="360" y="610" width="120" height="60" as="geometry" />
        </mxCell>
        <mxCell id="xeeP3HZNscB9_ukjhl5j-3" value="" style="edgeStyle=orthogonalEdgeStyle;rounded=0;orthogonalLoop=1;jettySize=auto;html=1;" edge="1" parent="1" source="xeeP3HZNscB9_ukjhl5j-2" target="xeeP3HZNscB9_ukjhl5j-1">
          <mxGeometry relative="1" as="geometry">
            <Array as="points">
              <mxPoint x="290" y="640" />
            </Array>
          </mxGeometry>
        </mxCell>
        <mxCell id="xeeP3HZNscB9_ukjhl5j-7" style="edgeStyle=orthogonalEdgeStyle;rounded=0;orthogonalLoop=1;jettySize=auto;html=1;entryX=0.5;entryY=0;entryDx=0;entryDy=0;" edge="1" parent="1" source="xeeP3HZNscB9_ukjhl5j-2" target="xeeP3HZNscB9_ukjhl5j-6">
          <mxGeometry relative="1" as="geometry" />
        </mxCell>
        <mxCell id="xeeP3HZNscB9_ukjhl5j-9" style="edgeStyle=orthogonalEdgeStyle;rounded=0;orthogonalLoop=1;jettySize=auto;html=1;" edge="1" parent="1" source="xeeP3HZNscB9_ukjhl5j-2" target="xeeP3HZNscB9_ukjhl5j-8">
          <mxGeometry relative="1" as="geometry" />
        </mxCell>
        <mxCell id="xeeP3HZNscB9_ukjhl5j-14" value="" style="edgeStyle=orthogonalEdgeStyle;rounded=0;orthogonalLoop=1;jettySize=auto;html=1;" edge="1" parent="1" source="xeeP3HZNscB9_ukjhl5j-2" target="xeeP3HZNscB9_ukjhl5j-13">
          <mxGeometry relative="1" as="geometry" />
        </mxCell>
        <mxCell id="xeeP3HZNscB9_ukjhl5j-29" style="edgeStyle=orthogonalEdgeStyle;rounded=0;orthogonalLoop=1;jettySize=auto;html=1;" edge="1" parent="1" source="xeeP3HZNscB9_ukjhl5j-2" target="xeeP3HZNscB9_ukjhl5j-28">
          <mxGeometry relative="1" as="geometry" />
        </mxCell>
        <mxCell id="xeeP3HZNscB9_ukjhl5j-2" value="Regeneration" style="rounded=0;whiteSpace=wrap;html=1;" vertex="1" parent="1">
          <mxGeometry x="230" y="750" width="120" height="60" as="geometry" />
        </mxCell>
        <mxCell id="xeeP3HZNscB9_ukjhl5j-5" style="edgeStyle=orthogonalEdgeStyle;rounded=0;orthogonalLoop=1;jettySize=auto;html=1;entryX=0.5;entryY=1;entryDx=0;entryDy=0;" edge="1" parent="1" source="xeeP3HZNscB9_ukjhl5j-4" target="xeeP3HZNscB9_ukjhl5j-1">
          <mxGeometry relative="1" as="geometry" />
        </mxCell>
        <mxCell id="xeeP3HZNscB9_ukjhl5j-11" value="" style="edgeStyle=orthogonalEdgeStyle;rounded=0;orthogonalLoop=1;jettySize=auto;html=1;" edge="1" parent="1" source="xeeP3HZNscB9_ukjhl5j-4" target="xeeP3HZNscB9_ukjhl5j-10">
          <mxGeometry relative="1" as="geometry" />
        </mxCell>
        <mxCell id="xeeP3HZNscB9_ukjhl5j-19" value="" style="edgeStyle=orthogonalEdgeStyle;rounded=0;orthogonalLoop=1;jettySize=auto;html=1;" edge="1" parent="1" source="xeeP3HZNscB9_ukjhl5j-4" target="xeeP3HZNscB9_ukjhl5j-18">
          <mxGeometry relative="1" as="geometry" />
        </mxCell>
        <mxCell id="xeeP3HZNscB9_ukjhl5j-37" style="edgeStyle=orthogonalEdgeStyle;rounded=0;orthogonalLoop=1;jettySize=auto;html=1;" edge="1" parent="1" source="xeeP3HZNscB9_ukjhl5j-4" target="xeeP3HZNscB9_ukjhl5j-36">
          <mxGeometry relative="1" as="geometry">
            <Array as="points">
              <mxPoint x="520" y="840" />
              <mxPoint x="710" y="840" />
            </Array>
          </mxGeometry>
        </mxCell>
        <mxCell id="xeeP3HZNscB9_ukjhl5j-4" value="Scar formation" style="rounded=0;whiteSpace=wrap;html=1;" vertex="1" parent="1">
          <mxGeometry x="460" y="750" width="120" height="60" as="geometry" />
        </mxCell>
        <mxCell id="xeeP3HZNscB9_ukjhl5j-6" value="Labile tissues" style="rounded=0;whiteSpace=wrap;html=1;" vertex="1" parent="1">
          <mxGeometry x="10" y="840" width="120" height="60" as="geometry" />
        </mxCell>
        <mxCell id="xeeP3HZNscB9_ukjhl5j-8" value="stable tissue" style="rounded=0;whiteSpace=wrap;html=1;" vertex="1" parent="1">
          <mxGeometry x="-120" y="750" width="120" height="60" as="geometry" />
        </mxCell>
        <mxCell id="xeeP3HZNscB9_ukjhl5j-10" value="Permanent tissue" style="rounded=0;whiteSpace=wrap;html=1;" vertex="1" parent="1">
          <mxGeometry x="460" y="950" width="120" height="60" as="geometry" />
        </mxCell>
        <mxCell id="xeeP3HZNscB9_ukjhl5j-12" value="tissue type" style="rounded=0;whiteSpace=wrap;html=1;" vertex="1" parent="1">
          <mxGeometry x="40" y="750" width="120" height="60" as="geometry" />
        </mxCell>
        <mxCell id="xeeP3HZNscB9_ukjhl5j-16" value="" style="edgeStyle=orthogonalEdgeStyle;rounded=0;orthogonalLoop=1;jettySize=auto;html=1;" edge="1" parent="1" source="xeeP3HZNscB9_ukjhl5j-13" target="xeeP3HZNscB9_ukjhl5j-15">
          <mxGeometry relative="1" as="geometry" />
        </mxCell>
        <mxCell id="xeeP3HZNscB9_ukjhl5j-13" value="Severity" style="rounded=0;whiteSpace=wrap;html=1;" vertex="1" parent="1">
          <mxGeometry x="160" y="900" width="120" height="60" as="geometry" />
        </mxCell>
        <mxCell id="xeeP3HZNscB9_ukjhl5j-15" value="Mild or superficial" style="rounded=0;whiteSpace=wrap;html=1;" vertex="1" parent="1">
          <mxGeometry x="160" y="1000" width="120" height="60" as="geometry" />
        </mxCell>
        <mxCell id="xeeP3HZNscB9_ukjhl5j-17" value="tissue type" style="rounded=0;whiteSpace=wrap;html=1;" vertex="1" parent="1">
          <mxGeometry x="460" y="850" width="120" height="60" as="geometry" />
        </mxCell>
        <mxCell id="xeeP3HZNscB9_ukjhl5j-21" value="" style="edgeStyle=orthogonalEdgeStyle;rounded=0;orthogonalLoop=1;jettySize=auto;html=1;" edge="1" parent="1" source="xeeP3HZNscB9_ukjhl5j-18" target="xeeP3HZNscB9_ukjhl5j-20">
          <mxGeometry relative="1" as="geometry" />
        </mxCell>
        <mxCell id="xeeP3HZNscB9_ukjhl5j-18" value="severity" style="rounded=0;whiteSpace=wrap;html=1;" vertex="1" parent="1">
          <mxGeometry x="640" y="750" width="120" height="60" as="geometry" />
        </mxCell>
        <mxCell id="xeeP3HZNscB9_ukjhl5j-20" value="deep" style="rounded=0;whiteSpace=wrap;html=1;" vertex="1" parent="1">
          <mxGeometry x="810" y="750" width="120" height="60" as="geometry" />
        </mxCell>
        <mxCell id="xeeP3HZNscB9_ukjhl5j-25" value="" style="edgeStyle=orthogonalEdgeStyle;rounded=0;orthogonalLoop=1;jettySize=auto;html=1;" edge="1" parent="1" source="xeeP3HZNscB9_ukjhl5j-22" target="xeeP3HZNscB9_ukjhl5j-24">
          <mxGeometry relative="1" as="geometry" />
        </mxCell>
        <mxCell id="xeeP3HZNscB9_ukjhl5j-27" style="edgeStyle=orthogonalEdgeStyle;rounded=0;orthogonalLoop=1;jettySize=auto;html=1;" edge="1" parent="1" source="xeeP3HZNscB9_ukjhl5j-22" target="xeeP3HZNscB9_ukjhl5j-26">
          <mxGeometry relative="1" as="geometry" />
        </mxCell>
        <mxCell id="xeeP3HZNscB9_ukjhl5j-32" style="edgeStyle=orthogonalEdgeStyle;rounded=0;orthogonalLoop=1;jettySize=auto;html=1;" edge="1" parent="1" source="xeeP3HZNscB9_ukjhl5j-22" target="xeeP3HZNscB9_ukjhl5j-31">
          <mxGeometry relative="1" as="geometry" />
        </mxCell>
        <mxCell id="xeeP3HZNscB9_ukjhl5j-33" value="Ex" style="edgeLabel;html=1;align=center;verticalAlign=middle;resizable=0;points=[];" vertex="1" connectable="0" parent="xeeP3HZNscB9_ukjhl5j-32">
          <mxGeometry x="0.5517" y="5" relative="1" as="geometry">
            <mxPoint as="offset" />
          </mxGeometry>
        </mxCell>
        <mxCell id="xeeP3HZNscB9_ukjhl5j-22" value="how it happens" style="rounded=0;whiteSpace=wrap;html=1;" vertex="1" parent="1">
          <mxGeometry x="560" y="610" width="120" height="60" as="geometry" />
        </mxCell>
        <mxCell id="xeeP3HZNscB9_ukjhl5j-24" value="macrophages, epithial, stromal" style="rounded=0;whiteSpace=wrap;html=1;" vertex="1" parent="1">
          <mxGeometry x="560" y="490" width="120" height="60" as="geometry" />
        </mxCell>
        <mxCell id="xeeP3HZNscB9_ukjhl5j-26" value="cell proliferation and stem cell regen" style="rounded=0;whiteSpace=wrap;html=1;" vertex="1" parent="1">
          <mxGeometry x="700" y="530" width="120" height="60" as="geometry" />
        </mxCell>
        <mxCell id="xeeP3HZNscB9_ukjhl5j-30" style="edgeStyle=orthogonalEdgeStyle;rounded=0;orthogonalLoop=1;jettySize=auto;html=1;" edge="1" parent="1" source="xeeP3HZNscB9_ukjhl5j-28" target="xeeP3HZNscB9_ukjhl5j-4">
          <mxGeometry relative="1" as="geometry">
            <Array as="points">
              <mxPoint x="440" y="780" />
            </Array>
          </mxGeometry>
        </mxCell>
        <mxCell id="xeeP3HZNscB9_ukjhl5j-28" value="if tissue is widely impacted then scar may form" style="rounded=0;whiteSpace=wrap;html=1;" vertex="1" parent="1">
          <mxGeometry x="320" y="840" width="120" height="60" as="geometry" />
        </mxCell>
        <mxCell id="xeeP3HZNscB9_ukjhl5j-35" style="edgeStyle=orthogonalEdgeStyle;rounded=0;orthogonalLoop=1;jettySize=auto;html=1;" edge="1" parent="1" source="xeeP3HZNscB9_ukjhl5j-31" target="xeeP3HZNscB9_ukjhl5j-34">
          <mxGeometry relative="1" as="geometry" />
        </mxCell>
        <mxCell id="xeeP3HZNscB9_ukjhl5j-31" value="Liver" style="rounded=0;whiteSpace=wrap;html=1;" vertex="1" parent="1">
          <mxGeometry x="860" y="630" width="120" height="60" as="geometry" />
        </mxCell>
        <mxCell id="xeeP3HZNscB9_ukjhl5j-34" value="IL-6 from kupfer leave to hepatocyte growth factor" style="rounded=0;whiteSpace=wrap;html=1;" vertex="1" parent="1">
          <mxGeometry x="920" y="450" width="150" height="70" as="geometry" />
        </mxCell>
        <mxCell id="xeeP3HZNscB9_ukjhl5j-45" style="edgeStyle=orthogonalEdgeStyle;rounded=0;orthogonalLoop=1;jettySize=auto;html=1;entryX=0.5;entryY=0;entryDx=0;entryDy=0;" edge="1" parent="1" source="xeeP3HZNscB9_ukjhl5j-36" target="xeeP3HZNscB9_ukjhl5j-40">
          <mxGeometry relative="1" as="geometry" />
        </mxCell>
        <mxCell id="xeeP3HZNscB9_ukjhl5j-72" style="edgeStyle=orthogonalEdgeStyle;rounded=0;orthogonalLoop=1;jettySize=auto;html=1;entryX=0.75;entryY=0;entryDx=0;entryDy=0;" edge="1" parent="1" source="xeeP3HZNscB9_ukjhl5j-36" target="xeeP3HZNscB9_ukjhl5j-71">
          <mxGeometry relative="1" as="geometry">
            <Array as="points">
              <mxPoint x="710" y="970" />
              <mxPoint x="845" y="970" />
            </Array>
          </mxGeometry>
        </mxCell>
        <mxCell id="xeeP3HZNscB9_ukjhl5j-36" value="how it happens" style="rounded=0;whiteSpace=wrap;html=1;" vertex="1" parent="1">
          <mxGeometry x="650" y="890" width="120" height="60" as="geometry" />
        </mxCell>
        <mxCell id="xeeP3HZNscB9_ukjhl5j-39" value="" style="edgeStyle=orthogonalEdgeStyle;rounded=0;orthogonalLoop=1;jettySize=auto;html=1;" edge="1" parent="1" source="xeeP3HZNscB9_ukjhl5j-38" target="xeeP3HZNscB9_ukjhl5j-36">
          <mxGeometry relative="1" as="geometry" />
        </mxCell>
        <mxCell id="xeeP3HZNscB9_ukjhl5j-38" value="Uses basement membrane and interstitial matrix" style="rounded=0;whiteSpace=wrap;html=1;" vertex="1" parent="1">
          <mxGeometry x="650" y="1010" width="120" height="60" as="geometry" />
        </mxCell>
        <mxCell id="xeeP3HZNscB9_ukjhl5j-40" value="Sever injury" style="rounded=0;whiteSpace=wrap;html=1;" vertex="1" parent="1">
          <mxGeometry x="930" y="940" width="120" height="60" as="geometry" />
        </mxCell>
        <mxCell id="xeeP3HZNscB9_ukjhl5j-48" value="" style="edgeStyle=orthogonalEdgeStyle;rounded=0;orthogonalLoop=1;jettySize=auto;html=1;" edge="1" parent="1" source="xeeP3HZNscB9_ukjhl5j-41" target="xeeP3HZNscB9_ukjhl5j-47">
          <mxGeometry relative="1" as="geometry" />
        </mxCell>
        <mxCell id="xeeP3HZNscB9_ukjhl5j-41" value="platlet plug" style="rounded=0;whiteSpace=wrap;html=1;" vertex="1" parent="1">
          <mxGeometry x="930" y="1000" width="120" height="60" as="geometry" />
        </mxCell>
        <mxCell id="xeeP3HZNscB9_ukjhl5j-68" style="edgeStyle=orthogonalEdgeStyle;rounded=0;orthogonalLoop=1;jettySize=auto;html=1;entryX=0;entryY=0.5;entryDx=0;entryDy=0;" edge="1" parent="1" source="xeeP3HZNscB9_ukjhl5j-42" target="xeeP3HZNscB9_ukjhl5j-49">
          <mxGeometry relative="1" as="geometry" />
        </mxCell>
        <mxCell id="xeeP3HZNscB9_ukjhl5j-42" value="inflamation" style="rounded=0;whiteSpace=wrap;html=1;" vertex="1" parent="1">
          <mxGeometry x="930" y="1060" width="120" height="60" as="geometry" />
        </mxCell>
        <mxCell id="xeeP3HZNscB9_ukjhl5j-69" style="edgeStyle=orthogonalEdgeStyle;rounded=0;orthogonalLoop=1;jettySize=auto;html=1;entryX=0;entryY=0.5;entryDx=0;entryDy=0;" edge="1" parent="1" source="xeeP3HZNscB9_ukjhl5j-43" target="xeeP3HZNscB9_ukjhl5j-54">
          <mxGeometry relative="1" as="geometry" />
        </mxCell>
        <mxCell id="xeeP3HZNscB9_ukjhl5j-43" value="cell proliferation" style="rounded=0;whiteSpace=wrap;html=1;" vertex="1" parent="1">
          <mxGeometry x="930" y="1120" width="120" height="60" as="geometry" />
        </mxCell>
        <mxCell id="xeeP3HZNscB9_ukjhl5j-70" value="" style="edgeStyle=orthogonalEdgeStyle;rounded=0;orthogonalLoop=1;jettySize=auto;html=1;" edge="1" parent="1" source="xeeP3HZNscB9_ukjhl5j-44" target="xeeP3HZNscB9_ukjhl5j-66">
          <mxGeometry relative="1" as="geometry" />
        </mxCell>
        <mxCell id="xeeP3HZNscB9_ukjhl5j-44" value="Remodiling" style="rounded=0;whiteSpace=wrap;html=1;" vertex="1" parent="1">
          <mxGeometry x="930" y="1180" width="120" height="60" as="geometry" />
        </mxCell>
        <mxCell id="xeeP3HZNscB9_ukjhl5j-46" value="steps" style="text;html=1;align=center;verticalAlign=middle;resizable=0;points=[];autosize=1;strokeColor=none;fillColor=none;" vertex="1" parent="1">
          <mxGeometry x="825" y="898" width="50" height="30" as="geometry" />
        </mxCell>
        <mxCell id="xeeP3HZNscB9_ukjhl5j-47" value="early formation creates scaffold" style="rounded=0;whiteSpace=wrap;html=1;" vertex="1" parent="1">
          <mxGeometry x="1140" y="1000" width="120" height="60" as="geometry" />
        </mxCell>
        <mxCell id="xeeP3HZNscB9_ukjhl5j-52" style="edgeStyle=orthogonalEdgeStyle;rounded=0;orthogonalLoop=1;jettySize=auto;html=1;" edge="1" parent="1" source="xeeP3HZNscB9_ukjhl5j-49" target="xeeP3HZNscB9_ukjhl5j-50">
          <mxGeometry relative="1" as="geometry" />
        </mxCell>
        <mxCell id="xeeP3HZNscB9_ukjhl5j-53" style="edgeStyle=orthogonalEdgeStyle;rounded=0;orthogonalLoop=1;jettySize=auto;html=1;entryX=0;entryY=0.5;entryDx=0;entryDy=0;" edge="1" parent="1" source="xeeP3HZNscB9_ukjhl5j-49" target="xeeP3HZNscB9_ukjhl5j-51">
          <mxGeometry relative="1" as="geometry" />
        </mxCell>
        <mxCell id="xeeP3HZNscB9_ukjhl5j-49" value="macrophage mediation cleaning and growth factor creation" style="rounded=0;whiteSpace=wrap;html=1;" vertex="1" parent="1">
          <mxGeometry x="1140" y="1060" width="120" height="60" as="geometry" />
        </mxCell>
        <mxCell id="xeeP3HZNscB9_ukjhl5j-50" value="M1: cleaning and stimulate inflamation" style="rounded=0;whiteSpace=wrap;html=1;" vertex="1" parent="1">
          <mxGeometry x="1330" y="1020" width="120" height="60" as="geometry" />
        </mxCell>
        <mxCell id="xeeP3HZNscB9_ukjhl5j-51" value="M2 produce growth factors" style="rounded=0;whiteSpace=wrap;html=1;" vertex="1" parent="1">
          <mxGeometry x="1330" y="1100" width="120" height="60" as="geometry" />
        </mxCell>
        <mxCell id="xeeP3HZNscB9_ukjhl5j-56" style="edgeStyle=orthogonalEdgeStyle;rounded=0;orthogonalLoop=1;jettySize=auto;html=1;" edge="1" parent="1" source="xeeP3HZNscB9_ukjhl5j-54" target="xeeP3HZNscB9_ukjhl5j-55">
          <mxGeometry relative="1" as="geometry">
            <Array as="points">
              <mxPoint x="1600" y="1180" />
            </Array>
          </mxGeometry>
        </mxCell>
        <mxCell id="xeeP3HZNscB9_ukjhl5j-59" style="edgeStyle=orthogonalEdgeStyle;rounded=0;orthogonalLoop=1;jettySize=auto;html=1;entryX=0;entryY=0.5;entryDx=0;entryDy=0;" edge="1" parent="1" source="xeeP3HZNscB9_ukjhl5j-54" target="xeeP3HZNscB9_ukjhl5j-58">
          <mxGeometry relative="1" as="geometry">
            <Array as="points">
              <mxPoint x="1325" y="1180" />
              <mxPoint x="1325" y="1240" />
            </Array>
          </mxGeometry>
        </mxCell>
        <mxCell id="xeeP3HZNscB9_ukjhl5j-61" style="edgeStyle=orthogonalEdgeStyle;rounded=0;orthogonalLoop=1;jettySize=auto;html=1;entryX=0;entryY=0.5;entryDx=0;entryDy=0;" edge="1" parent="1" source="xeeP3HZNscB9_ukjhl5j-54" target="xeeP3HZNscB9_ukjhl5j-60">
          <mxGeometry relative="1" as="geometry">
            <Array as="points">
              <mxPoint x="1320" y="1180" />
              <mxPoint x="1320" y="1330" />
            </Array>
          </mxGeometry>
        </mxCell>
        <mxCell id="xeeP3HZNscB9_ukjhl5j-54" value="epithial, endothelial, firboblasts come in" style="rounded=0;whiteSpace=wrap;html=1;" vertex="1" parent="1">
          <mxGeometry x="1140" y="1120" width="120" height="60" as="geometry" />
        </mxCell>
        <mxCell id="xeeP3HZNscB9_ukjhl5j-63" style="edgeStyle=orthogonalEdgeStyle;rounded=0;orthogonalLoop=1;jettySize=auto;html=1;entryX=0;entryY=0.5;entryDx=0;entryDy=0;" edge="1" parent="1" source="xeeP3HZNscB9_ukjhl5j-55" target="xeeP3HZNscB9_ukjhl5j-62">
          <mxGeometry relative="1" as="geometry">
            <mxPoint x="1810" y="1230" as="targetPoint" />
          </mxGeometry>
        </mxCell>
        <mxCell id="xeeP3HZNscB9_ukjhl5j-55" value="Angiogensis" style="rounded=0;whiteSpace=wrap;html=1;" vertex="1" parent="1">
          <mxGeometry x="1540" y="1100" width="120" height="60" as="geometry" />
        </mxCell>
        <mxCell id="xeeP3HZNscB9_ukjhl5j-64" style="edgeStyle=orthogonalEdgeStyle;rounded=0;orthogonalLoop=1;jettySize=auto;html=1;entryX=0;entryY=0.5;entryDx=0;entryDy=0;" edge="1" parent="1" source="xeeP3HZNscB9_ukjhl5j-58" target="xeeP3HZNscB9_ukjhl5j-62">
          <mxGeometry relative="1" as="geometry" />
        </mxCell>
        <mxCell id="xeeP3HZNscB9_ukjhl5j-58" value="Fibroblasts screte collagen in response to cytokines" style="rounded=0;whiteSpace=wrap;html=1;" vertex="1" parent="1">
          <mxGeometry x="1550" y="1200" width="120" height="60" as="geometry" />
        </mxCell>
        <mxCell id="xeeP3HZNscB9_ukjhl5j-65" style="edgeStyle=orthogonalEdgeStyle;rounded=0;orthogonalLoop=1;jettySize=auto;html=1;entryX=0;entryY=0.5;entryDx=0;entryDy=0;" edge="1" parent="1" source="xeeP3HZNscB9_ukjhl5j-60" target="xeeP3HZNscB9_ukjhl5j-62">
          <mxGeometry relative="1" as="geometry" />
        </mxCell>
        <mxCell id="xeeP3HZNscB9_ukjhl5j-60" value="TGF-B crucial cytokine in scar formation by synth of collogen and degradation of ECM" style="rounded=0;whiteSpace=wrap;html=1;" vertex="1" parent="1">
          <mxGeometry x="1560" y="1300" width="120" height="100" as="geometry" />
        </mxCell>
        <mxCell id="xeeP3HZNscB9_ukjhl5j-62" value="granulation tissue" style="rounded=0;whiteSpace=wrap;html=1;" vertex="1" parent="1">
          <mxGeometry x="1820" y="1200" width="120" height="60" as="geometry" />
        </mxCell>
        <mxCell id="xeeP3HZNscB9_ukjhl5j-66" value="remodeling moves loose connective tissue in dense firbous scar" style="rounded=0;whiteSpace=wrap;html=1;" vertex="1" parent="1">
          <mxGeometry x="1140" y="1200" width="120" height="60" as="geometry" />
        </mxCell>
        <mxCell id="xeeP3HZNscB9_ukjhl5j-74" style="edgeStyle=orthogonalEdgeStyle;rounded=0;orthogonalLoop=1;jettySize=auto;html=1;entryX=0.5;entryY=0;entryDx=0;entryDy=0;" edge="1" parent="1" source="xeeP3HZNscB9_ukjhl5j-71" target="xeeP3HZNscB9_ukjhl5j-73">
          <mxGeometry relative="1" as="geometry" />
        </mxCell>
        <mxCell id="xeeP3HZNscB9_ukjhl5j-76" style="edgeStyle=orthogonalEdgeStyle;rounded=0;orthogonalLoop=1;jettySize=auto;html=1;entryX=0.5;entryY=0;entryDx=0;entryDy=0;" edge="1" parent="1" source="xeeP3HZNscB9_ukjhl5j-71" target="xeeP3HZNscB9_ukjhl5j-75">
          <mxGeometry relative="1" as="geometry" />
        </mxCell>
        <mxCell id="xeeP3HZNscB9_ukjhl5j-71" value="Terms" style="rounded=0;whiteSpace=wrap;html=1;" vertex="1" parent="1">
          <mxGeometry x="755" y="1190" width="120" height="60" as="geometry" />
        </mxCell>
        <mxCell id="xeeP3HZNscB9_ukjhl5j-73" value="First intention: epithelial regeneration with miniuim scaring because pulled together" style="rounded=0;whiteSpace=wrap;html=1;" vertex="1" parent="1">
          <mxGeometry x="660" y="1300" width="120" height="110" as="geometry" />
        </mxCell>
        <mxCell id="xeeP3HZNscB9_ukjhl5j-75" value="Second intention tissue not able to be pulled together" style="rounded=0;whiteSpace=wrap;html=1;" vertex="1" parent="1">
          <mxGeometry x="850" y="1310" width="120" height="60" as="geometry" />
        </mxCell>
        <mxCell id="xeeP3HZNscB9_ukjhl5j-81" value="" style="edgeStyle=orthogonalEdgeStyle;rounded=0;orthogonalLoop=1;jettySize=auto;html=1;" edge="1" parent="1" source="xeeP3HZNscB9_ukjhl5j-77" target="xeeP3HZNscB9_ukjhl5j-80">
          <mxGeometry relative="1" as="geometry" />
        </mxCell>
        <mxCell id="xeeP3HZNscB9_ukjhl5j-83" style="edgeStyle=orthogonalEdgeStyle;rounded=0;orthogonalLoop=1;jettySize=auto;html=1;" edge="1" parent="1" source="xeeP3HZNscB9_ukjhl5j-77" target="xeeP3HZNscB9_ukjhl5j-82">
          <mxGeometry relative="1" as="geometry" />
        </mxCell>
        <mxCell id="xeeP3HZNscB9_ukjhl5j-85" style="edgeStyle=orthogonalEdgeStyle;rounded=0;orthogonalLoop=1;jettySize=auto;html=1;" edge="1" parent="1" source="xeeP3HZNscB9_ukjhl5j-77" target="xeeP3HZNscB9_ukjhl5j-84">
          <mxGeometry relative="1" as="geometry" />
        </mxCell>
        <mxCell id="xeeP3HZNscB9_ukjhl5j-87" style="edgeStyle=orthogonalEdgeStyle;rounded=0;orthogonalLoop=1;jettySize=auto;html=1;" edge="1" parent="1" source="xeeP3HZNscB9_ukjhl5j-77" target="xeeP3HZNscB9_ukjhl5j-86">
          <mxGeometry relative="1" as="geometry" />
        </mxCell>
        <mxCell id="xeeP3HZNscB9_ukjhl5j-91" value="&lt;div&gt;chronic&lt;/div&gt;&lt;div&gt;wound&lt;/div&gt;" style="edgeLabel;html=1;align=center;verticalAlign=middle;resizable=0;points=[];" vertex="1" connectable="0" parent="xeeP3HZNscB9_ukjhl5j-87">
          <mxGeometry x="0.0989" y="4" relative="1" as="geometry">
            <mxPoint as="offset" />
          </mxGeometry>
        </mxCell>
        <mxCell id="xeeP3HZNscB9_ukjhl5j-77" value="complications" style="rounded=0;whiteSpace=wrap;html=1;" vertex="1" parent="1">
          <mxGeometry x="130" y="490" width="120" height="60" as="geometry" />
        </mxCell>
        <mxCell id="xeeP3HZNscB9_ukjhl5j-80" value="steroids can lead to decreased collegen formation" style="rounded=0;whiteSpace=wrap;html=1;" vertex="1" parent="1">
          <mxGeometry x="-10" y="590" width="120" height="60" as="geometry" />
        </mxCell>
        <mxCell id="xeeP3HZNscB9_ukjhl5j-82" value="infection leads to prolong inflammation perpetuating tissue" style="rounded=0;whiteSpace=wrap;html=1;" vertex="1" parent="1">
          <mxGeometry x="-100" y="490" width="120" height="60" as="geometry" />
        </mxCell>
        <mxCell id="xeeP3HZNscB9_ukjhl5j-84" value="mechanical pressure pulling things apart" style="rounded=0;whiteSpace=wrap;html=1;" vertex="1" parent="1">
          <mxGeometry x="20" y="370" width="120" height="60" as="geometry" />
        </mxCell>
        <mxCell id="xeeP3HZNscB9_ukjhl5j-89" style="edgeStyle=orthogonalEdgeStyle;rounded=0;orthogonalLoop=1;jettySize=auto;html=1;" edge="1" parent="1" source="xeeP3HZNscB9_ukjhl5j-86" target="xeeP3HZNscB9_ukjhl5j-88">
          <mxGeometry relative="1" as="geometry" />
        </mxCell>
        <mxCell id="xeeP3HZNscB9_ukjhl5j-92" style="edgeStyle=orthogonalEdgeStyle;rounded=0;orthogonalLoop=1;jettySize=auto;html=1;" edge="1" parent="1" source="xeeP3HZNscB9_ukjhl5j-86" target="xeeP3HZNscB9_ukjhl5j-90">
          <mxGeometry relative="1" as="geometry" />
        </mxCell>
        <mxCell id="xeeP3HZNscB9_ukjhl5j-95" value="" style="edgeStyle=orthogonalEdgeStyle;rounded=0;orthogonalLoop=1;jettySize=auto;html=1;" edge="1" parent="1" source="xeeP3HZNscB9_ukjhl5j-86" target="xeeP3HZNscB9_ukjhl5j-93">
          <mxGeometry relative="1" as="geometry">
            <Array as="points">
              <mxPoint x="410" y="380" />
            </Array>
          </mxGeometry>
        </mxCell>
        <mxCell id="xeeP3HZNscB9_ukjhl5j-97" style="edgeStyle=orthogonalEdgeStyle;rounded=0;orthogonalLoop=1;jettySize=auto;html=1;entryX=0;entryY=0.5;entryDx=0;entryDy=0;" edge="1" parent="1" source="xeeP3HZNscB9_ukjhl5j-86" target="xeeP3HZNscB9_ukjhl5j-96">
          <mxGeometry relative="1" as="geometry" />
        </mxCell>
        <mxCell id="xeeP3HZNscB9_ukjhl5j-99" style="edgeStyle=orthogonalEdgeStyle;rounded=0;orthogonalLoop=1;jettySize=auto;html=1;" edge="1" parent="1" source="xeeP3HZNscB9_ukjhl5j-86" target="xeeP3HZNscB9_ukjhl5j-98">
          <mxGeometry relative="1" as="geometry" />
        </mxCell>
        <mxCell id="xeeP3HZNscB9_ukjhl5j-86" value="Ex" style="rounded=0;whiteSpace=wrap;html=1;" vertex="1" parent="1">
          <mxGeometry x="190" y="350" width="120" height="60" as="geometry" />
        </mxCell>
        <mxCell id="xeeP3HZNscB9_ukjhl5j-88" value="venous leg ulcers" style="rounded=0;whiteSpace=wrap;html=1;" vertex="1" parent="1">
          <mxGeometry x="70" y="230" width="120" height="50" as="geometry" />
        </mxCell>
        <mxCell id="xeeP3HZNscB9_ukjhl5j-90" value="Arterial Ulcers" style="rounded=0;whiteSpace=wrap;html=1;" vertex="1" parent="1">
          <mxGeometry x="250" y="220" width="120" height="60" as="geometry" />
        </mxCell>
        <mxCell id="xeeP3HZNscB9_ukjhl5j-93" value="Pressure sores" style="rounded=0;whiteSpace=wrap;html=1;" vertex="1" parent="1">
          <mxGeometry x="410" y="190" width="120" height="60" as="geometry" />
        </mxCell>
        <mxCell id="xeeP3HZNscB9_ukjhl5j-96" value="diabetic ulcers" style="rounded=0;whiteSpace=wrap;html=1;" vertex="1" parent="1">
          <mxGeometry x="530" y="250" width="120" height="60" as="geometry" />
        </mxCell>
        <mxCell id="xeeP3HZNscB9_ukjhl5j-98" value="Excessive scarring" style="rounded=0;whiteSpace=wrap;html=1;" vertex="1" parent="1">
          <mxGeometry x="460" y="330" width="120" height="60" as="geometry" />
        </mxCell>
      </root>
    </mxGraphModel>
  </diagram>
</mxfile>
